# xmcd
#
# Track frame offsets:
#	150
#	10502
#	29373
#	45953
#	67691
#	78729
#	90011
#	108318
#	122045
#	135538
#	150616
#	167349
#
# Disc length: 2390 seconds
#
# Revision: 0
# Processed by: cddbd v1.5PL3 Copyright (c) Steve Scherf et al.
# Submitted via: dBpowerAMP V4.0
#
DISCID=7809540c
DTITLE=Carolyn Mark - The Pros and Cons of Collaboration
DYEAR=1900
DGENRE=
TTITLE0=The Overture
TTITLE1=2 Days Smug and Sober
TTITLE2=Chantal and Leroy
TTITLE3=Not a Doll
TTITLE4=Vincent Gallo
TTITLE5=The Wine Song
TTITLE6=Jody and Sue
TTITLE7=Bigger Bed
TTITLE8=Slept All Afternoon
TTITLE9=Yanksgiving
TTITLE10=Hangover
TTITLE11=Outro/Credits
EXTD=
EXTT0=
EXTT1=
EXTT2=
EXTT3=
EXTT4=
EXTT5=
EXTT6=
EXTT7=
EXTT8=
EXTT9=
EXTT10=
EXTT11=
PLAYORDER=
